<mxfile host="app.diagrams.net" modified="2023-06-29T01:55:18.253Z" agent="Mozilla/5.0 (Windows NT 10.0; Win64; x64) AppleWebKit/537.36 (KHTML, like Gecko) Chrome/114.0.0.0 Safari/537.36" etag="a-pIAMOrco7-7jYz9f20" version="21.5.0" type="github">
  <diagram name="第 1 页" id="WTKTk7fBh8yMC817AvO8">
    <mxGraphModel dx="1050" dy="549" grid="1" gridSize="10" guides="1" tooltips="1" connect="1" arrows="1" fold="1" page="1" pageScale="1" pageWidth="827" pageHeight="1169" math="0" shadow="0">
      <root>
        <mxCell id="0" />
        <mxCell id="1" parent="0" />
        <mxCell id="PzNYTrcDjEHrP_zN51f8-2" value="" style="endArrow=none;html=1;rounded=0;exitX=1;exitY=0.75;exitDx=0;exitDy=0;" edge="1" parent="1">
          <mxGeometry width="50" height="50" relative="1" as="geometry">
            <mxPoint x="160" y="120" as="sourcePoint" />
            <mxPoint x="1023.199951171875" y="120" as="targetPoint" />
          </mxGeometry>
        </mxCell>
        <mxCell id="PzNYTrcDjEHrP_zN51f8-9" value="&lt;font style=&quot;font-size: 28px;&quot;&gt;表现层&lt;/font&gt;" style="rounded=0;whiteSpace=wrap;html=1;fillColor=#76608a;fontColor=#ffffff;strokeColor=#432D57;" vertex="1" parent="1">
          <mxGeometry x="40" y="60" width="120" height="60" as="geometry" />
        </mxCell>
        <mxCell id="PzNYTrcDjEHrP_zN51f8-10" value="&lt;font style=&quot;font-size: 20px;&quot;&gt;网页 或 app 或 exe应用&lt;/font&gt;" style="rounded=0;whiteSpace=wrap;html=1;fillColor=#b1ddf0;strokeColor=#10739e;" vertex="1" parent="1">
          <mxGeometry x="40" y="140" width="990" height="40" as="geometry" />
        </mxCell>
        <mxCell id="PzNYTrcDjEHrP_zN51f8-12" value="" style="verticalLabelPosition=bottom;verticalAlign=top;html=1;shape=mxgraph.basic.rect;fillColor2=none;strokeWidth=1;size=0;indent=5;" vertex="1" parent="1">
          <mxGeometry x="40" y="200" width="120" height="40" as="geometry" />
        </mxCell>
      </root>
    </mxGraphModel>
  </diagram>
</mxfile>
